<?xml version="1.0" encoding="utf-8"?>
<!-- Generator: Adobe Illustrator 25.2.1, SVG Export Plug-In . SVG Version: 6.00 Build 0)  -->
<svg version="1.1" id="Layer_1" xmlns="http://www.w3.org/2000/svg" xmlns:xlink="http://www.w3.org/1999/xlink" x="0px" y="0px"
	 viewBox="0 0 841.9 595.3" style="enable-background:new 0 0 841.9 595.3;" xml:space="preserve">
<style type="text/css">
	.st0{clip-path:url(#SVGID_1_);}
	.st1{clip-path:url(#SVGID_2_);}
	.st2{clip-path:url(#SVGID_3_);}
	.st3{clip-path:url(#SVGID_3_);fill:#FFFFFF;}
</style>
<g>
	<g>
		<defs>
			<polygon id="SVGID_7_" points="170.5,516 671.4,516 671.4,79.3 170.5,79.3 170.5,516 			"/>
		</defs>
		<defs>
			<polygon id="SVGID_8_" points="170.5,79.3 671.4,79.3 671.4,516 170.5,516 170.5,79.3 			"/>
		</defs>
		<clipPath id="SVGID_1_">
			<use xlink:href="#SVGID_7_"  style="overflow:visible;"/>
		</clipPath>
		<clipPath id="SVGID_2_" class="st0">
			<use xlink:href="#SVGID_8_"  style="overflow:visible;"/>
		</clipPath>
		<g class="st1">
			<defs>
				<polygon id="SVGID_11_" points="170.5,516 671.4,516 671.4,79.3 170.5,79.3 170.5,516 				"/>
			</defs>
			<clipPath id="SVGID_3_">
				<use xlink:href="#SVGID_11_"  style="overflow:visible;"/>
			</clipPath>
			<path class="st2" d="M562,81.4c11,10.8,14.5,23.5,13.1,37.8c-1.8,18.6-10.3,34.9-20.5,49.9c-27.7,40.8-56.1,81.2-84.3,121.7
				c-10.3,14.8-10.4,14.7,0.1,29.7c17.7,25.1,35.3,50.3,53,75.4c1.2,1.6,2.5,3.2,3.9,5c5.8-6.2,10.6-12.5,16.6-17.5
				c23.5-19.3,50-23.6,77.8-11.3c28.5,12.5,43.5,35.5,44.2,66.4c0.6,29.4-12.8,52.2-38.7,66.3c-33.5,18.3-73.5,8.9-95.7-22.2
				c-22.2-31.1-43.9-62.5-65.4-94c-4-5.8-8.2-9-15.4-7.6c-11.8,2.4-20.8-1.2-25.8-12.8c-0.8-1.8-2.5-3.3-4.5-5.8
				c-3.6,5-7,9.2-9.9,13.8c-2.4,3.7-5.3,6.1-9.7,5c-16.5-4-25,5-33.3,17.7c-18.5,28.2-38.1,55.7-57.6,83.3
				c-20.6,29.1-57.5,39.6-90,25.9c-32-13.5-50.9-48.3-43.5-82.9c6.5-30.6,25.7-50.7,56.1-57.6c30-6.8,55.6,2.8,75.3,26.9
				c1.3,1.6,2.5,3.3,3.8,5c0.3,0.3,0.8,0.5,1.9,1.2c1.5-1.7,3.2-3.5,4.6-5.4c19.7-28,39.3-56,59.1-83.9c2.9-4,3-6.9,0.1-11.1
				c-25.2-35.5-50.4-71-75.1-106.8c-14.8-21.4-30.1-42.7-35.5-69c-2.9-14.2-0.3-27.1,9.5-40c28.7,41.1,56.8,81.4,84.9,121.6
				c10.4-5.9,12.2-11.8,7.2-21.6c-3.5-6.8-6.7-13.7-8.7-21.4c20,28.3,39.9,56.6,60.8,86.3c27.8-39.2,55-77.6,82.1-115.9
				c0.6,0.3,1.1,0.7,1.7,1c-3.9,7.9-7.4,16.1-12,23.6c-3.9,6.4-4.1,11.4,3.9,16.8C517.8,144,539.7,113,562,81.4L562,81.4z
				 M249.6,398.9c-23.1-0.2-41.6,17.8-41.7,40.7c-0.1,22.4,18.2,40.9,40.8,41.1c22.2,0.2,40.9-17.9,41.2-39.8
				C290.2,417.3,272.7,399.1,249.6,398.9L249.6,398.9z M592,398.9c-23,0-41,18.2-41,41.3c0,22.1,18.7,40.4,41.3,40.5
				c22,0.1,40.9-18.9,40.8-41.2C633,417,614.6,398.9,592,398.9L592,398.9z M420.2,292c-6.3,0.2-11.5,5.6-11.5,11.7
				c0,6.3,5.3,11.6,11.5,11.6c6.5,0,12.1-5.7,11.9-12.1C432,297.1,426.3,291.8,420.2,292L420.2,292z"/>
			<path class="st2" d="M418.5,175.1c0,20.6,0,39.3,0,60c-24.8-35.4-48.6-69.5-71.6-102.4c6,5.5,13.2,11.6,19.9,18.4
				c11.8,11.9,23.4,24,34.8,36.2c3.6,3.8,6.1,4.5,9-0.6C412.6,183.3,415.1,180.1,418.5,175.1L418.5,175.1z"/>
			<path class="st3" d="M249.6,398.9c23.1,0.2,40.6,18.5,40.3,41.9c-0.3,22-18.9,40-41.2,39.8c-22.5-0.2-40.8-18.6-40.8-41.1
				C208.1,416.7,226.6,398.6,249.6,398.9L249.6,398.9z"/>
			<path class="st3" d="M592,398.9c22.7,0,41,18.2,41.1,40.6c0.1,22.3-18.7,41.3-40.8,41.2c-22.7-0.1-41.3-18.4-41.3-40.5
				C551,417,569,398.8,592,398.9L592,398.9z"/>
			<path class="st3" d="M420.2,292c6.1-0.2,11.8,5.1,12,11.3c0.2,6.4-5.4,12.1-11.9,12.1c-6.2,0-11.5-5.3-11.5-11.6
				C408.7,297.5,413.9,292.1,420.2,292L420.2,292z"/>
		</g>
	</g>
</g>
</svg>
